<?xml version="1.0" encoding="iso-8859-1"?>
<!-- Generator: Adobe Illustrator 19.0.0, SVG Export Plug-In . SVG Version: 6.00 Build 0)  -->
<svg version="1.1" id="Layer_1" xmlns="http://www.w3.org/2000/svg" xmlns:xlink="http://www.w3.org/1999/xlink" x="0px" y="0px"
	 viewBox="0 0 512 512" style="enable-background:new 0 0 512 512;" xml:space="preserve">
<path style="fill:#CFCDD2;" d="M271.084,230.249L85.241,44.405C84.297,29.568,71.96,17.778,56.889,17.778
	c-15.684,0-28.444,12.76-28.444,28.444c0,15.071,11.79,27.408,26.627,28.352l185.843,185.843L271.084,230.249z"/>
<path style="fill:#FF6643;" d="M469.333,295.111h-42.667l-72.836-72.836c-8.001-8.001-18.854-12.497-30.17-12.497H85.333
	C38.205,209.778,0,247.983,0,295.111v142.222h512v-99.556C512,314.213,492.898,295.111,469.333,295.111z"/>
<path style="fill:#FF4F19;" d="M469.333,295.111h-42.667l-72.836-72.836c-8.001-8.001-18.854-12.497-30.17-12.497H256v227.556h256
	v-99.556C512,314.213,492.898,295.111,469.333,295.111z"/>
<circle style="fill:#88888F;" cx="128" cy="437.333" r="56.889"/>
<circle style="fill:#56545A;" cx="384" cy="437.333" r="56.889"/>
<g>
</g>
<g>
</g>
<g>
</g>
<g>
</g>
<g>
</g>
<g>
</g>
<g>
</g>
<g>
</g>
<g>
</g>
<g>
</g>
<g>
</g>
<g>
</g>
<g>
</g>
<g>
</g>
<g>
</g>
</svg>
